<mxfile host="65bd71144e">
    <diagram id="vpWx2HFf52t4gIr1fh0F" name="Page-1">
        <mxGraphModel dx="790" dy="499" grid="1" gridSize="10" guides="1" tooltips="1" connect="1" arrows="1" fold="1" page="1" pageScale="1" pageWidth="827" pageHeight="1169" math="0" shadow="0">
            <root>
                <mxCell id="0"/>
                <mxCell id="1" parent="0"/>
                <mxCell id="22" value="Modifier une catégorie" style="shape=umlFrame;whiteSpace=wrap;html=1;width=110;height=30;" vertex="1" parent="1">
                    <mxGeometry x="40" y="520" width="760" height="440" as="geometry"/>
                </mxCell>
                <mxCell id="2" value="Ajouter une catégorie" style="shape=umlFrame;whiteSpace=wrap;html=1;width=110;height=30;" vertex="1" parent="1">
                    <mxGeometry x="40" y="40" width="760" height="440" as="geometry"/>
                </mxCell>
                <mxCell id="3" value="Administrateur" style="shape=umlLifeline;participant=umlActor;perimeter=lifelinePerimeter;whiteSpace=wrap;html=1;container=1;collapsible=0;recursiveResize=0;verticalAlign=top;spacingTop=36;outlineConnect=0;" vertex="1" parent="1">
                    <mxGeometry x="110" y="80" width="20" height="360" as="geometry"/>
                </mxCell>
                <mxCell id="4" value=":Application" style="shape=umlLifeline;perimeter=lifelinePerimeter;whiteSpace=wrap;html=1;container=1;collapsible=0;recursiveResize=0;outlineConnect=0;" vertex="1" parent="1">
                    <mxGeometry x="390" y="80" width="100" height="360" as="geometry"/>
                </mxCell>
                <mxCell id="15" value="Affiche la page d'ajout" style="html=1;verticalAlign=bottom;endArrow=open;dashed=1;endSize=8;" edge="1" parent="4" target="3">
                    <mxGeometry relative="1" as="geometry">
                        <mxPoint x="50" y="200" as="sourcePoint"/>
                        <mxPoint x="-30" y="200" as="targetPoint"/>
                    </mxGeometry>
                </mxCell>
                <mxCell id="17" value="Renvoie l'utilisateur sur la page de la catégorie crée" style="html=1;verticalAlign=bottom;endArrow=open;dashed=1;endSize=8;" edge="1" parent="4" target="3">
                    <mxGeometry relative="1" as="geometry">
                        <mxPoint x="50" y="280" as="sourcePoint"/>
                        <mxPoint x="-30" y="280" as="targetPoint"/>
                    </mxGeometry>
                </mxCell>
                <mxCell id="5" value="Se connecte sur la page de login" style="endArrow=open;endFill=1;endSize=12;html=1;" edge="1" parent="1" target="4">
                    <mxGeometry width="160" relative="1" as="geometry">
                        <mxPoint x="120" y="160" as="sourcePoint"/>
                        <mxPoint x="280" y="160" as="targetPoint"/>
                    </mxGeometry>
                </mxCell>
                <mxCell id="6" value="Connecte l'utilisateur et le renvoie sur la page d'accueil" style="html=1;verticalAlign=bottom;endArrow=open;dashed=1;endSize=8;" edge="1" parent="1" target="3">
                    <mxGeometry relative="1" as="geometry">
                        <mxPoint x="440" y="200" as="sourcePoint"/>
                        <mxPoint x="360" y="200" as="targetPoint"/>
                    </mxGeometry>
                </mxCell>
                <mxCell id="9" value="" style="html=1;points=[];perimeter=orthogonalPerimeter;" vertex="1" parent="1">
                    <mxGeometry x="510" y="170" width="10" height="20" as="geometry"/>
                </mxCell>
                <mxCell id="10" value="" style="html=1;verticalAlign=bottom;endArrow=block;entryX=0;entryY=0;" edge="1" target="9" parent="1" source="4">
                    <mxGeometry relative="1" as="geometry">
                        <mxPoint x="440" y="160" as="sourcePoint"/>
                    </mxGeometry>
                </mxCell>
                <mxCell id="11" value="" style="html=1;verticalAlign=bottom;endArrow=open;dashed=1;endSize=8;exitX=0;exitY=0.95;" edge="1" source="9" parent="1" target="4">
                    <mxGeometry relative="1" as="geometry">
                        <mxPoint x="440" y="236" as="targetPoint"/>
                    </mxGeometry>
                </mxCell>
                <mxCell id="13" value="&lt;div style=&quot;text-align: left&quot;&gt;Connecte l'utilisateur&lt;/div&gt;&lt;div style=&quot;text-align: left&quot;&gt;s'il est enregistré en BDD&lt;/div&gt;&lt;div style=&quot;text-align: left&quot;&gt;et que les données fournies&lt;/div&gt;&lt;div style=&quot;text-align: left&quot;&gt;sont correctes&lt;/div&gt;" style="shape=note2;boundedLbl=1;whiteSpace=wrap;html=1;size=25;verticalAlign=top;align=center;" vertex="1" parent="1">
                    <mxGeometry x="530" y="120" width="160" height="90" as="geometry"/>
                </mxCell>
                <mxCell id="14" value="Se rend sur la page d'ajout d'une catégorie" style="endArrow=open;endFill=1;endSize=12;html=1;" edge="1" parent="1" target="4">
                    <mxGeometry width="160" relative="1" as="geometry">
                        <mxPoint x="120" y="240" as="sourcePoint"/>
                        <mxPoint x="280" y="240" as="targetPoint"/>
                    </mxGeometry>
                </mxCell>
                <mxCell id="16" value="Complète le formulaire et le soumet" style="endArrow=open;endFill=1;endSize=12;html=1;" edge="1" parent="1" target="4">
                    <mxGeometry width="160" relative="1" as="geometry">
                        <mxPoint x="120" y="320" as="sourcePoint"/>
                        <mxPoint x="280" y="320" as="targetPoint"/>
                    </mxGeometry>
                </mxCell>
                <mxCell id="18" value="" style="html=1;points=[];perimeter=orthogonalPerimeter;" vertex="1" parent="1">
                    <mxGeometry x="510" y="330" width="10" height="20" as="geometry"/>
                </mxCell>
                <mxCell id="19" value="" style="html=1;verticalAlign=bottom;endArrow=block;entryX=0;entryY=0;" edge="1" target="18" parent="1">
                    <mxGeometry relative="1" as="geometry">
                        <mxPoint x="440" y="330" as="sourcePoint"/>
                    </mxGeometry>
                </mxCell>
                <mxCell id="20" value="" style="html=1;verticalAlign=bottom;endArrow=open;dashed=1;endSize=8;exitX=0;exitY=0.95;" edge="1" source="18" parent="1" target="4">
                    <mxGeometry relative="1" as="geometry">
                        <mxPoint x="440" y="406" as="targetPoint"/>
                    </mxGeometry>
                </mxCell>
                <mxCell id="21" value="&lt;div style=&quot;text-align: left&quot;&gt;Enregistre les informations de la nouvelle catégorie en BDD&lt;/div&gt;" style="shape=note2;boundedLbl=1;whiteSpace=wrap;html=1;size=25;verticalAlign=top;align=center;" vertex="1" parent="1">
                    <mxGeometry x="530" y="302.5" width="160" height="75" as="geometry"/>
                </mxCell>
                <mxCell id="23" value="Administrateur" style="shape=umlLifeline;participant=umlActor;perimeter=lifelinePerimeter;whiteSpace=wrap;html=1;container=1;collapsible=0;recursiveResize=0;verticalAlign=top;spacingTop=36;outlineConnect=0;" vertex="1" parent="1">
                    <mxGeometry x="110" y="560" width="20" height="360" as="geometry"/>
                </mxCell>
                <mxCell id="24" value=":Application" style="shape=umlLifeline;perimeter=lifelinePerimeter;whiteSpace=wrap;html=1;container=1;collapsible=0;recursiveResize=0;outlineConnect=0;" vertex="1" parent="1">
                    <mxGeometry x="390" y="560" width="100" height="360" as="geometry"/>
                </mxCell>
                <mxCell id="26" value="Affiche la page single catégorie avec les infos" style="html=1;verticalAlign=bottom;endArrow=open;dashed=1;endSize=8;" edge="1" parent="24">
                    <mxGeometry relative="1" as="geometry">
                        <mxPoint x="50" y="200" as="sourcePoint"/>
                        <mxPoint x="-270.5" y="200" as="targetPoint"/>
                    </mxGeometry>
                </mxCell>
                <mxCell id="25" value="Se rend sur la page de la catégorie" style="endArrow=open;endFill=1;endSize=12;html=1;" edge="1" parent="1">
                    <mxGeometry width="160" relative="1" as="geometry">
                        <mxPoint x="120" y="720" as="sourcePoint"/>
                        <mxPoint x="439.5" y="720" as="targetPoint"/>
                    </mxGeometry>
                </mxCell>
                <mxCell id="27" value="Clique sur le bouton de modification" style="endArrow=open;endFill=1;endSize=12;html=1;" edge="1" parent="1">
                    <mxGeometry width="160" relative="1" as="geometry">
                        <mxPoint x="120" y="800" as="sourcePoint"/>
                        <mxPoint x="439.5" y="800" as="targetPoint"/>
                    </mxGeometry>
                </mxCell>
                <mxCell id="28" value="Affiche la page de modification" style="html=1;verticalAlign=bottom;endArrow=open;dashed=1;endSize=8;" edge="1" parent="1">
                    <mxGeometry relative="1" as="geometry">
                        <mxPoint x="440" y="840" as="sourcePoint"/>
                        <mxPoint x="119.5" y="840" as="targetPoint"/>
                    </mxGeometry>
                </mxCell>
                <mxCell id="29" value="Rempli le formulaire et le soumet" style="endArrow=open;endFill=1;endSize=12;html=1;" edge="1" parent="1">
                    <mxGeometry width="160" relative="1" as="geometry">
                        <mxPoint x="120" y="880" as="sourcePoint"/>
                        <mxPoint x="439.5" y="880" as="targetPoint"/>
                    </mxGeometry>
                </mxCell>
                <mxCell id="32" value="" style="html=1;points=[];perimeter=orthogonalPerimeter;" vertex="1" parent="1">
                    <mxGeometry x="510" y="887.5" width="10" height="20" as="geometry"/>
                </mxCell>
                <mxCell id="33" value="" style="html=1;verticalAlign=bottom;endArrow=block;entryX=0;entryY=0;" edge="1" parent="1" target="32">
                    <mxGeometry relative="1" as="geometry">
                        <mxPoint x="440" y="887.5" as="sourcePoint"/>
                    </mxGeometry>
                </mxCell>
                <mxCell id="34" value="" style="html=1;verticalAlign=bottom;endArrow=open;dashed=1;endSize=8;exitX=0;exitY=0.95;" edge="1" parent="1" source="32">
                    <mxGeometry relative="1" as="geometry">
                        <mxPoint x="439.5" y="906.5" as="targetPoint"/>
                    </mxGeometry>
                </mxCell>
                <mxCell id="35" value="&lt;div style=&quot;text-align: left&quot;&gt;Enregistre les informations de la nouvelle catégorie en BDD&lt;/div&gt;" style="shape=note2;boundedLbl=1;whiteSpace=wrap;html=1;size=25;verticalAlign=top;align=center;" vertex="1" parent="1">
                    <mxGeometry x="530" y="860" width="160" height="75" as="geometry"/>
                </mxCell>
                <mxCell id="36" value="Renvoie l'utilisateur sur la page de la catégorie modifiée" style="html=1;verticalAlign=bottom;endArrow=open;dashed=1;endSize=8;" edge="1" parent="1">
                    <mxGeometry relative="1" as="geometry">
                        <mxPoint x="440.5" y="920" as="sourcePoint"/>
                        <mxPoint x="120" y="920" as="targetPoint"/>
                    </mxGeometry>
                </mxCell>
                <mxCell id="37" value="Se connecte sur la page de login" style="endArrow=open;endFill=1;endSize=12;html=1;" edge="1" parent="1">
                    <mxGeometry width="160" relative="1" as="geometry">
                        <mxPoint x="120" y="640" as="sourcePoint"/>
                        <mxPoint x="439.5" y="640" as="targetPoint"/>
                    </mxGeometry>
                </mxCell>
                <mxCell id="38" value="Connecte l'utilisateur et le renvoie sur la page d'accueil" style="html=1;verticalAlign=bottom;endArrow=open;dashed=1;endSize=8;" edge="1" parent="1">
                    <mxGeometry relative="1" as="geometry">
                        <mxPoint x="440" y="680" as="sourcePoint"/>
                        <mxPoint x="119.5" y="680" as="targetPoint"/>
                    </mxGeometry>
                </mxCell>
                <mxCell id="39" value="" style="html=1;points=[];perimeter=orthogonalPerimeter;" vertex="1" parent="1">
                    <mxGeometry x="510" y="650" width="10" height="20" as="geometry"/>
                </mxCell>
                <mxCell id="40" value="" style="html=1;verticalAlign=bottom;endArrow=block;entryX=0;entryY=0;" edge="1" parent="1" target="39">
                    <mxGeometry relative="1" as="geometry">
                        <mxPoint x="439.5" y="650" as="sourcePoint"/>
                    </mxGeometry>
                </mxCell>
                <mxCell id="41" value="" style="html=1;verticalAlign=bottom;endArrow=open;dashed=1;endSize=8;exitX=0;exitY=0.95;" edge="1" parent="1" source="39">
                    <mxGeometry relative="1" as="geometry">
                        <mxPoint x="439.5" y="669" as="targetPoint"/>
                    </mxGeometry>
                </mxCell>
                <mxCell id="42" value="&lt;div style=&quot;text-align: left&quot;&gt;Connecte l'utilisateur&lt;/div&gt;&lt;div style=&quot;text-align: left&quot;&gt;s'il est enregistré en BDD&lt;/div&gt;&lt;div style=&quot;text-align: left&quot;&gt;et que les données fournies&lt;/div&gt;&lt;div style=&quot;text-align: left&quot;&gt;sont correctes&lt;/div&gt;" style="shape=note2;boundedLbl=1;whiteSpace=wrap;html=1;size=25;verticalAlign=top;align=center;" vertex="1" parent="1">
                    <mxGeometry x="530" y="600" width="160" height="90" as="geometry"/>
                </mxCell>
            </root>
        </mxGraphModel>
    </diagram>
</mxfile>